<svg xmlns="http://www.w3.org/2000/svg" width="33.868" height="33.869" viewBox="0 0 33.868 33.869">
  <g id="noun_back_487925" transform="translate(-13.344 -9.568)">
    <g id="Group_10189" data-name="Group 10189" transform="translate(13.344 9.568)">
      <g id="Group_10188" data-name="Group 10188" transform="translate(0 0)">
        <path id="Path_1399" data-name="Path 1399" d="M13.344,26.5a16.932,16.932,0,0,0,3.185,9.879,17.2,17.2,0,0,0,8.326,6.166,16.976,16.976,0,0,0,10.561.095,16.765,16.765,0,0,0,4.622-2.3,17.62,17.62,0,0,0,3.813-3.72A16.914,16.914,0,0,0,44.2,16.863a17.212,17.212,0,0,0-8.214-6.306,16.9,16.9,0,0,0-18.966,5.422,17.5,17.5,0,0,0-2.634,4.675,16.8,16.8,0,0,0-1.029,5.215c-.009.211-.012.422-.012.633a1.049,1.049,0,0,0,2.1,0,16.428,16.428,0,0,1,.142-2.134l-.037.279a16.116,16.116,0,0,1,.54-2.484c.121-.4.259-.795.411-1.184.036-.093.074-.185.112-.278.075-.183-.106.249-.028.067l.06-.137c.087-.2.178-.392.272-.586a15.882,15.882,0,0,1,1.255-2.124c.113-.161.229-.32.348-.477.045-.06.165-.214-.044.056l.091-.116c.071-.09.143-.179.216-.267.26-.315.535-.62.818-.914s.58-.577.886-.849q.22-.2.448-.383.114-.094.229-.185l.116-.091c-.283.221-.08.062-.017.015a15.908,15.908,0,0,1,2.076-1.325c.365-.2.738-.375,1.116-.541l.137-.059c-.318.136-.137.058-.067.029.092-.038.185-.075.278-.111.2-.079.406-.153.611-.223a15.79,15.79,0,0,1,2.452-.624c.186-.032.372-.06.559-.085l-.279.037a16.239,16.239,0,0,1,4.268,0l-.279-.037a16.117,16.117,0,0,1,2.484.54c.4.121.795.259,1.184.411.093.036.185.074.278.112.183.075-.249-.106-.067-.028l.137.06c.2.087.392.178.586.272a15.884,15.884,0,0,1,2.124,1.255c.161.113.32.229.477.348.06.045.214.165-.056-.044l.116.091c.09.071.179.143.267.216.315.26.62.534.914.818s.577.58.849.886q.2.22.383.448.094.114.185.229l.091.116c-.221-.283-.062-.08-.015-.017a15.9,15.9,0,0,1,1.325,2.076c.2.365.375.738.541,1.116l.059.137c-.136-.318-.058-.137-.029-.067.038.092.075.185.111.278.079.2.153.406.223.611a15.785,15.785,0,0,1,.624,2.452c.032.186.06.372.085.559l-.037-.279a16.239,16.239,0,0,1,0,4.268l.037-.279a16.118,16.118,0,0,1-.54,2.484c-.121.4-.259.795-.411,1.184-.036.093-.074.185-.112.278-.075.183.106-.249.028-.067l-.06.137c-.087.2-.178.392-.272.586a15.882,15.882,0,0,1-1.255,2.124c-.113.161-.229.32-.348.477-.045.06-.165.214.044-.056l-.091.116c-.071.09-.144.179-.216.267-.26.316-.535.62-.818.914s-.58.577-.886.849q-.22.2-.448.383-.114.094-.229.185l-.116.091c.283-.221.08-.063.017-.015a15.9,15.9,0,0,1-2.076,1.325c-.365.2-.738.375-1.116.541l-.137.059c.318-.136.137-.058.067-.029-.092.038-.185.075-.278.111-.2.079-.406.153-.611.223a15.787,15.787,0,0,1-2.452.624c-.186.032-.372.06-.559.085l.279-.037a16.239,16.239,0,0,1-4.268,0l.279.037a16.117,16.117,0,0,1-2.484-.54c-.4-.121-.795-.259-1.184-.411-.093-.036-.185-.074-.278-.112-.183-.075.249.106.067.028l-.137-.06c-.2-.087-.392-.178-.586-.272A15.88,15.88,0,0,1,21.7,38.611c-.161-.113-.32-.229-.477-.348-.06-.045-.214-.165.056.044l-.116-.091c-.09-.071-.179-.144-.267-.216-.315-.26-.62-.535-.914-.818s-.577-.58-.849-.886q-.2-.22-.383-.448-.094-.114-.185-.229l-.091-.116c.221.283.062.08.015.017a15.908,15.908,0,0,1-1.325-2.076c-.2-.365-.375-.738-.541-1.116l-.059-.137c.136.318.058.137.029.067-.038-.092-.075-.185-.111-.278-.079-.2-.153-.406-.223-.611a15.79,15.79,0,0,1-.624-2.452c-.032-.186-.06-.372-.085-.559l.037.279a16.428,16.428,0,0,1-.142-2.134,1.049,1.049,0,1,0-2.1,0Z" transform="translate(-13.344 -9.568)" fill="#006db7"/>
      </g>
    </g>
    <g id="Group_10191" data-name="Group 10191" transform="translate(22.986 25.453)">
      <g id="Group_10190" data-name="Group 10190" transform="translate(0)">
        <path id="Path_1400" data-name="Path 1400" d="M284.247,433.581H271.762a1.049,1.049,0,1,0,0,2.1h12.485a1.049,1.049,0,0,0,0-2.1Z" transform="translate(-270.713 -433.581)" fill="#006db7"/>
      </g>
    </g>
    <g id="Group_10193" data-name="Group 10193" transform="translate(22.99 20.449)">
      <g id="Group_10192" data-name="Group 10192" transform="translate(0)">
        <path id="Path_1401" data-name="Path 1401" d="M276.18,300.3l-3.961,3.924-1.1,1.087a1.049,1.049,0,0,0,1.483,1.483l3.961-3.924,1.1-1.087a1.049,1.049,0,0,0-1.483-1.483Z" transform="translate(-270.818 -299.993)" fill="#006db7"/>
      </g>
    </g>
    <g id="Group_10195" data-name="Group 10195" transform="translate(22.99 25.456)">
      <g id="Group_10194" data-name="Group 10194" transform="translate(0 0)">
        <path id="Path_1402" data-name="Path 1402" d="M277.664,438.978l-3.961-3.924-1.1-1.087a1.049,1.049,0,0,0-1.483,1.483l3.961,3.924,1.1,1.087a1.049,1.049,0,0,0,1.483-1.484Z" transform="translate(-270.818 -433.665)" fill="#006db7"/>
      </g>
    </g>
  </g>
</svg>
