<svg xmlns="http://www.w3.org/2000/svg" width="48.547" height="48.548" viewBox="0 0 48.547 48.548">
  <path id="Icon_awesome-check-circle" data-name="Icon awesome-check-circle" d="M49.11,24.836A24.274,24.274,0,1,1,24.836.563,24.274,24.274,0,0,1,49.11,24.836ZM22.029,37.689l18.01-18.01a1.566,1.566,0,0,0,0-2.215L37.823,15.25a1.566,1.566,0,0,0-2.215,0L20.921,29.937,14.064,23.08a1.566,1.566,0,0,0-2.215,0L9.634,25.295a1.566,1.566,0,0,0,0,2.215L19.814,37.689A1.566,1.566,0,0,0,22.029,37.689Z" transform="translate(-0.563 -0.563)" fill="#006db7"/>
</svg>
