<svg xmlns="http://www.w3.org/2000/svg" width="35.518" height="35.172" viewBox="0 0 35.518 35.172">
  <path id="Path_1337" data-name="Path 1337" d="M280.028,275.38a3.961,3.961,0,1,0-5.134-.009,5.655,5.655,0,0,0-2.7,3.877,1.029,1.029,0,0,0,.578,1.069.4.4,0,0,0,.624-.268c.37-2.138,1.275-2.491,1.275-2.491-1.1.79-1,3.215-.991,3.216a1.17,1.17,0,0,0,.829.879,11.137,11.137,0,0,0,5.893,0,1.169,1.169,0,0,0,.828-.879s.092-2.423-1.009-3.216c0,0,.906.355,1.276,2.5a.4.4,0,0,0,.62.271c1.221-.646.275-2.266-.19-3.128a5.639,5.639,0,0,0-1.9-1.818Zm-2.562-.24a2.778,2.778,0,0,1,0-5.556A2.778,2.778,0,0,1,277.466,275.139Z" transform="translate(-259.692 -251.598)" fill="#006db7"/>
  <path id="Path_1332" data-name="Path 1332" d="M150.083,172.652a4.583,4.583,0,0,1-.4-5.286c-.1-.067-.195-.122-.29-.176h0a5.016,5.016,0,1,0-6.215.158h0a7.493,7.493,0,0,0-3.878,5.346,1.383,1.383,0,0,0,.806,1.452.546.546,0,0,0,.836-.367c.468-2.708,1.571-3.295,1.707-3.36-1.47,1.085-1.345,4.332-1.345,4.332h0a1.567,1.567,0,0,0,1.114,1.179,15.167,15.167,0,0,0,5.328.451,6.01,6.01,0,0,1,2.335-3.728Zm-3.9-5.482a3.839,3.839,0,1,1,2.709-1.124,3.839,3.839,0,0,1-2.709,1.124Z" transform="translate(-135.803 -148.972)" fill="#006db7"/>
  <path id="Path_1333" data-name="Path 1333" d="M389.305,178.217c.02-.012.062-.036.083-.047a4.185,4.185,0,0,1-.676-3.544,7.906,7.906,0,0,0,6.733-2.2,4.239,4.239,0,0,1,.687,5.808,9.455,9.455,0,0,1,1.808,1.529v-5.363c-.211-6.824-10.086-6.793-10.312,0v1.79a4.576,4.576,0,0,1,1.677,2.033Z" transform="translate(-367.32 -159.201)" fill="#006db7"/>
  <path id="Path_1334" data-name="Path 1334" d="M408.46,301.723l-.539-.018h0a3.905,3.905,0,0,1-2.122.545,3.952,3.952,0,0,1-2.1-.693c-.354.188-.726.34-1.067.551h0a4.587,4.587,0,0,1-.919,4.1,6.057,6.057,0,0,1,2.3,3.651,13.34,13.34,0,0,0,5.369-.326,1.407,1.407,0,0,0,1-1.055c.006,0,.124-2.886-1.173-3.84.119.053,1.1.575,1.511,2.975a.48.48,0,0,0,.747.32,1.229,1.229,0,0,0,.693-1.28c-.657-2.914-2-3.81-3.7-4.925Z" transform="translate(-380.454 -282.511)" fill="#006db7"/>
  <path id="Path_1335" data-name="Path 1335" d="M121.556,51.966V32.355c.225.124.845.682,1.119.647a.6.6,0,0,0,.338-1.08L121.3,30.736,106.9,20.77a2.381,2.381,0,0,0-2.7,0L88.1,31.921a.593.593,0,0,0,.675.975l.782-.541V51.966a1.778,1.778,0,0,0,0,3.556h32a1.778,1.778,0,0,0,0-3.556Zm-1.185,0H90.739V31.534l14.141-9.79a1.188,1.188,0,0,1,1.349,0l14.141,9.79Z" transform="translate(-87.796 -20.35)" fill="#006db7"/>
</svg>
