<svg xmlns="http://www.w3.org/2000/svg" width="57.766" height="27.558" viewBox="0 0 57.766 27.558">
  <g id="Group_10214" data-name="Group 10214" transform="translate(0 2.185)">
    <path id="Path_1630" data-name="Path 1630" d="M26.654,44.284l-1.056.452a.765.765,0,0,1-.9-.151L22.113,41.5c-.211-.226-.739-.151-.739.151V53.215c0,.264-.317.49-.686.49h-1.9c-.37,0-.686-.226-.686-.49V47.676c0-.226-.264-.377-.528-.377H16.3c-.317,0-.528.188-.528.377v5.539c0,.264-.317.49-.686.49H13.4c-.37,0-.686-.226-.686-.49V41.609c0-.3-.528-.377-.739-.151l-2.587,3.09a.782.782,0,0,1-.9.151l-1.056-.452a.407.407,0,0,1-.211-.641l4.963-5.878a1.7,1.7,0,0,1,1.32-.528h.739a1,1,0,0,1,.37.075,8.867,8.867,0,0,0,4.858,0,1.292,1.292,0,0,1,.37-.075h.686a1.7,1.7,0,0,1,1.32.528l4.963,5.878C27.076,43.87,26.971,44.133,26.654,44.284Z" transform="translate(-7.136 -28.332)" fill="#c1c1c1"/>
    <ellipse id="Ellipse_260" data-name="Ellipse 260" cx="4.134" cy="4.134" rx="4.134" ry="4.134" transform="translate(5.822 0)" fill="#c1c1c1"/>
  </g>
  <g id="Group_10215" data-name="Group 10215" transform="translate(40.97 1.879)">
    <path id="Path_1631" data-name="Path 1631" d="M72.256,43.721l-4.229-5.892A1.351,1.351,0,0,0,66.9,37.3h-.585a.745.745,0,0,0-.315.076,6.47,6.47,0,0,1-4.139,0,.959.959,0,0,0-.315-.076h-.585a1.351,1.351,0,0,0-1.125.529L55.61,43.721a.438.438,0,0,0,.18.642l.9.453a.584.584,0,0,0,.765-.151l2.2-3.1c.18-.227.63-.151.63.151v.151L57.41,48.744c-.09.151.09.34.27.34h2.34a.286.286,0,0,1,.315.264v3.966a.554.554,0,0,0,.585.491h1.62a.554.554,0,0,0,.585-.491V49.348a.286.286,0,0,1,.315-.264h1.17a.286.286,0,0,1,.315.264v3.966a.554.554,0,0,0,.585.491h1.485a.554.554,0,0,0,.585-.491V49.348a.286.286,0,0,1,.315-.264h2.34c.225,0,.36-.189.27-.34L67.622,41.87v-.151c0-.264.45-.378.63-.151l2.2,3.1a.6.6,0,0,0,.765.151l.9-.453A.459.459,0,0,0,72.256,43.721Z" transform="translate(-55.536 -28.432)" fill="#5dacfb"/>
    <ellipse id="Ellipse_263" data-name="Ellipse 263" cx="4.134" cy="4.134" rx="4.134" ry="4.134" transform="translate(4.187 0)" fill="#5dacfb"/>
  </g>
  <line id="Line_220" data-name="Line 220" y2="27.558" transform="translate(30.398)" fill="none" stroke="#707070" stroke-width="1"/>
</svg>
