<svg xmlns="http://www.w3.org/2000/svg" width="28.708" height="28.706" viewBox="0 0 28.708 28.706">
  <path id="Icon_ionic-ios-call" data-name="Icon ionic-ios-call" d="M28.269,23.674a20.567,20.567,0,0,0-4.3-2.875c-1.288-.618-1.759-.606-2.671.051-.759.548-1.249,1.058-2.123.867s-2.594-1.492-4.264-3.155-2.97-3.391-3.155-4.264.325-1.364.867-2.123c.657-.912.676-1.383.051-2.671A20.16,20.16,0,0,0,9.8,5.208c-.937-.937-1.147-.733-1.664-.548a9.467,9.467,0,0,0-1.523.81A4.6,4.6,0,0,0,4.786,7.4C4.423,8.185,4,9.644,6.144,13.456a33.789,33.789,0,0,0,5.941,7.923h0l.006.006.006.006h0a33.921,33.921,0,0,0,7.923,5.941c3.812,2.142,5.272,1.721,6.056,1.358a4.517,4.517,0,0,0,1.931-1.829,9.467,9.467,0,0,0,.81-1.523C29,24.821,29.212,24.611,28.269,23.674Z" transform="translate(1.123 -5.276) rotate(11)" fill="#006db7"/>
</svg>