<svg xmlns="http://www.w3.org/2000/svg" width="20.446" height="26.499" viewBox="0 0 20.446 26.499">
  <path id="Path_1336" data-name="Path 1336" d="M287.413,281.95a7.689,7.689,0,1,0-9.966-.017,10.976,10.976,0,0,0-5.248,7.525,2,2,0,0,0,1.122,2.076.782.782,0,0,0,1.211-.521c.719-4.149,2.475-4.836,2.475-4.836-2.126,1.533-1.936,6.241-1.924,6.243a2.271,2.271,0,0,0,1.61,1.707c5.032,1.023,6.384,1.031,11.439,0a2.269,2.269,0,0,0,1.607-1.707s.178-4.7-1.958-6.243c0,0,1.759.688,2.477,4.847a.783.783,0,0,0,1.2.526c2.37-1.254.534-4.4-.369-6.071a10.945,10.945,0,0,0-3.681-3.529Zm-4.973-.467c-7.126-.226-7.125-10.559,0-10.785C289.565,270.925,289.564,281.258,282.439,281.483Z" transform="translate(-272.18 -268.398)" fill="#006db7"/>
</svg>
