<svg xmlns="http://www.w3.org/2000/svg" width="17.759" height="15.539" viewBox="0 0 17.759 15.539">
  <path id="Icon_awesome-sort-amount-up" data-name="Icon awesome-sort-amount-up" d="M10.544,4.47H8.324a.555.555,0,0,1-.555-.555V2.8a.555.555,0,0,1,.555-.555h2.22A.555.555,0,0,1,11.1,2.8v1.11A.555.555,0,0,1,10.544,4.47ZM.555,13.349H2.22V2.8a.555.555,0,0,1,.555-.555h1.11A.555.555,0,0,1,4.44,2.8V13.349H6.1A.555.555,0,0,1,6.5,14.3l-2.775,3.33a.555.555,0,0,1-.785,0L.162,14.3A.555.555,0,0,1,.555,13.349Zm14.429,0H8.324a.555.555,0,0,1-.555-.555v-1.11a.555.555,0,0,1,.555-.555h6.66a.555.555,0,0,1,.555.555v1.11A.555.555,0,0,1,14.984,13.349Zm-2.22-4.44H8.324a.555.555,0,0,1-.555-.555V7.245a.555.555,0,0,1,.555-.555h4.44a.555.555,0,0,1,.555.555v1.11A.555.555,0,0,1,12.764,8.91Zm4.44,8.88H8.324a.555.555,0,0,1-.555-.555v-1.11a.555.555,0,0,1,.555-.555H17.2a.555.555,0,0,1,.555.555v1.11A.555.555,0,0,1,17.2,17.789Z" transform="translate(0 -2.25)" fill="#f89829"/>
</svg>
