<svg xmlns="http://www.w3.org/2000/svg" width="17.759" height="15.539" viewBox="0 0 17.759 15.539">
  <path id="Icon_awesome-sort-amount-up" data-name="Icon awesome-sort-amount-up" d="M10.544,15.569H8.324a.555.555,0,0,0-.555.555v1.11a.555.555,0,0,0,.555.555h2.22a.555.555,0,0,0,.555-.555v-1.11A.555.555,0,0,0,10.544,15.569ZM.555,6.69H2.22V17.234a.555.555,0,0,0,.555.555h1.11a.555.555,0,0,0,.555-.555V6.69H6.1A.555.555,0,0,0,6.5,5.742L3.722,2.413a.555.555,0,0,0-.785,0L.162,5.742A.555.555,0,0,0,.555,6.69Zm14.429,0H8.324a.555.555,0,0,0-.555.555v1.11a.555.555,0,0,0,.555.555h6.66a.555.555,0,0,0,.555-.555V7.245A.555.555,0,0,0,14.984,6.69Zm-2.22,4.44H8.324a.555.555,0,0,0-.555.555v1.11a.555.555,0,0,0,.555.555h4.44a.555.555,0,0,0,.555-.555v-1.11A.555.555,0,0,0,12.764,11.13ZM17.2,2.25H8.324a.555.555,0,0,0-.555.555v1.11a.555.555,0,0,0,.555.555H17.2a.555.555,0,0,0,.555-.555V2.8A.555.555,0,0,0,17.2,2.25Z" transform="translate(0 -2.25)" fill="#f89829"/>
</svg>
